<svg width="27" height="34" fill="none" xmlns="http://www.w3.org/2000/svg">
  <path d="M1.093.212c1.556-.915 4.02 1.184 6.548 5.304l.013.027 8.373 1.19c.09.012.172.056.231.123l.04.053 10.648 17.353a.366.366 0 0 1-.128.508L11.22 33.947a.382.382 0 0 1-.518-.127L.054 16.467a.365.365 0 0 1-.032-.316l2.717-7.49a18.585 18.585 0 0 1-.468-.725C.183 4.533-.436 1.112 1.093.212Zm6.318 6.044L3.597 8.5l-.02.054c.54.756 1.107 1.415 1.659 1.95A2.82 2.82 0 0 1 6.49 8.963c1.371-.806 3.153-.367 3.98.982a2.809 2.809 0 0 1-.983 3.901c-1.371.807-3.153.367-3.98-.98a2.8 2.8 0 0 1-.418-1.476A13.57 13.57 0 0 1 3.27 9.4L.792 16.237l10.36 16.885 14.953-8.797L15.745 7.44 7.41 6.256ZM19.92 22.724a.382.382 0 0 1 .518.127.365.365 0 0 1-.073.469l-.055.04-7.244 4.261a.382.382 0 0 1-.518-.128.365.365 0 0 1 .074-.468l.054-.04 7.244-4.261Zm-4.734-2.483a1.794 1.794 0 0 1 2.431.6c.506.823.237 1.89-.6 2.383a1.794 1.794 0 0 1-2.432-.6 1.716 1.716 0 0 1 .601-2.383Zm.39.636a.985.985 0 0 0-.345 1.368c.29.473.915.627 1.395.344a.985.985 0 0 0 .345-1.368 1.03 1.03 0 0 0-1.395-.344Zm-.625-3.95a.372.372 0 0 1 .258.401l-.015.066-2.226 6.755a.377.377 0 0 1-.475.236.372.372 0 0 1-.258-.402l.015-.065 2.226-6.755a.377.377 0 0 1 .475-.236Zm-4.476 1.414a1.794 1.794 0 0 1 2.43.599c.506.823.237 1.89-.6 2.383a1.794 1.794 0 0 1-2.431-.6 1.716 1.716 0 0 1 .6-2.382Zm.39.635a.985.985 0 0 0-.346 1.368c.29.473.915.627 1.396.344a.985.985 0 0 0 .345-1.368 1.03 1.03 0 0 0-1.396-.344ZM9.484 9.902l.005.042c.157 1.27-.095 2.218-.807 2.637-.705.415-1.679.184-2.728-.52.048.145.114.287.198.423a2.173 2.173 0 0 0 2.944.726 2.077 2.077 0 0 0 .727-2.886 2.125 2.125 0 0 0-.339-.422ZM6.88 9.598c-.564.332-.916.88-1.01 1.473 1.009.827 1.91 1.177 2.423.875.463-.272.621-1.147.365-2.426a.363.363 0 0 1-.004-.114 2.17 2.17 0 0 0-1.774.192ZM1.483.848C.48 1.438 1.03 4.48 2.917 7.556c.073.119.146.235.22.35l3.738-2.2-.162-.261C4.506 1.98 2.446.28 1.483.848Z" fill="#937031"></path>
</svg>
