<svg xmlns:xlink="http://www.w3.org/1999/xlink" xmlns="http://www.w3.org/2000/svg" version="1.1" viewBox="0 0 50 50" height="50px" width="50px">
    <title>Icon / Hand Selected / Gold</title>
    <g fill-rule="evenodd" fill="none" stroke-width="1" stroke="none" id="Icon-/-Hand-Selected-/-Gold">
        <g transform="translate(-1.000000, 4.000000)" id="Group-18">
            <g fill-rule="nonzero" fill="#B9975B" transform="translate(0.000000, 2.000000)" id="Group-7">
                <path id="Combined-Shape" d="M20.5076773,20.4108122 C20.9573293,20.554888 21.3634481,20.7095157 21.7198283,20.8646826 L21.9920962,20.9879072 C22.0629061,21.0214956 22.1116134,21.0462967 22.1317488,21.0584078 C23.5499827,21.6369984 24.8881565,22.0877895 26.1045337,22.4256505 L26.5913775,22.5563723 C26.7460727,22.5964087 26.8930704,22.6329474 27.0320367,22.6661084 L27.5207378,22.7797069 C27.5288606,22.7820851 27.5343228,22.7840225 27.5368439,22.7855002 L33.7287374,22.7885354 C35.2077236,22.7885354 36.4430768,23.8328973 36.7370716,25.2243018 L43.0938409,22.2300954 C45.712036,20.7755092 47.8127279,20.7210872 49.3591578,21.5414414 C49.7391076,21.7429982 49.9979592,21.9514772 50.1602525,22.1292478 C51.1786968,23.3800444 51.2445368,24.510764 50.6872562,25.3803212 C50.5896459,25.5326283 50.4895426,25.6508144 50.3730711,25.7553365 L50.2506296,25.8560616 L34.2882767,34.9128818 C33.0029671,35.8042781 31.9773976,36.3496571 30.9567165,36.6661131 C29.6865699,37.0599143 28.4110941,37.1112568 26.5754926,36.8730862 L25.9599574,36.7841739 C25.2785803,36.6731478 23.9260363,36.4220026 22.5557946,36.1623263 L22.008303,36.0583128 C20.5540695,35.7813934 19.1788338,35.51473 18.6756653,35.4180217 L18.5294042,35.3900347 C18.5123567,35.3868019 18.499103,35.384311 18.4898366,35.382601 C13.9432227,34.5432673 10.6527532,35.1243363 8.40441625,36.5851238 C7.88116313,36.9250914 7.46067565,37.287024 7.13389875,37.6460318 C6.99648051,37.797004 6.89920373,37.9199558 6.83883064,38.0051435 C6.72041475,38.9798718 5.88815235,39.7354545 4.87919192,39.7354545 L4.87919192,39.7354545 L2.72969697,39.7354545 C1.63789803,39.7354545 0.752424242,38.8499808 0.752424242,37.7581818 L0.752424242,37.7581818 L0.752424242,24.2420202 C0.752424242,23.1502647 1.63785454,22.2652525 2.72969697,22.2652525 L2.72969697,22.2652525 L4.87919192,22.2652525 C5.78216315,22.2652525 6.54356186,22.8700647 6.78028851,23.6966586 C8.42801254,22.5556251 9.94163346,21.6723929 11.2991896,21.0133012 C11.7366097,20.8009344 12.1333267,20.6240408 12.4871838,20.4795789 L12.7445066,20.3772659 C12.9984904,20.2790972 13.176266,20.2185151 13.2768689,20.188618 C15.7161813,19.4813275 18.1969457,19.6704163 20.5076773,20.4108122 Z M4.87919192,23.2652525 L2.72969697,23.2652525 C2.19003358,23.2652525 1.75242424,23.7026552 1.75242424,24.2420202 L1.75242424,24.2420202 L1.75242424,37.7581818 C1.75242424,38.297696 2.19018278,38.7354545 2.72969697,38.7354545 L2.72969697,38.7354545 L4.87919192,38.7354545 C5.41901031,38.7354545 5.85646465,38.2978969 5.85646465,37.7581818 L5.85646465,37.7581818 L5.85646465,24.2420202 C5.85646465,23.7024544 5.41915951,23.2652525 4.87919192,23.2652525 L4.87919192,23.2652525 Z M13.5585962,21.1481066 L13.4337949,21.1888524 C13.3523201,21.2169467 13.2424331,21.2569076 13.1050293,21.3100163 C12.7154113,21.4606098 12.2576669,21.6595863 11.7359366,21.9128856 C10.350663,22.5854341 8.78978929,23.5038554 7.07936341,24.7056212 L6.85642424,24.8632634 L6.8568385,36.504874 C7.1342761,36.25829 7.46713996,36.0015571 7.85959349,35.7465726 C10.2523615,34.1919455 13.659457,33.5549036 18.2258159,34.3207061 L18.9943976,34.4609857 C20.3005824,34.7125481 24.9706525,35.6183184 26.2325729,35.8151121 L26.3438275,35.8318976 C28.2496539,36.1074335 29.4697842,36.0801664 30.6605794,35.7109676 C31.500288,35.4506211 32.3656977,35.0047348 33.4742207,34.2597216 L33.7565421,34.0671707 L49.6897909,25.0321438 L49.7525148,24.9674204 C49.7797383,24.9352597 49.8119756,24.8927734 49.8453208,24.8407428 C50.1691895,24.3353918 50.130847,23.6769071 49.4045397,22.783456 C49.334684,22.7075168 49.1634916,22.5696385 48.8905314,22.4248378 C47.6965511,21.7914521 46.0401007,21.8088145 43.8190691,22.974083 L43.5498288,23.1194569 L36.7704254,26.3151354 C36.5601946,27.7402292 35.3717577,28.8470702 33.9093812,28.9318012 L33.7287374,28.9370202 L23.185303,28.9370202 L23.185303,27.9370202 L33.7287374,27.9370202 C34.8744388,27.9370202 35.8034848,27.0082259 35.8034848,25.8627778 C35.8034848,24.7671317 34.9534692,23.8697096 33.8768895,23.7937441 L33.7287374,23.7885354 L27.4442892,23.7801821 L27.0122743,23.6883447 C26.6701515,23.6103956 26.2766333,23.5113115 25.8369057,23.3891728 C24.5843751,23.0412698 23.2095754,22.5781405 21.7085253,21.9630405 L21.5220715,21.8719447 C21.4649986,21.8454514 21.3977104,21.8151078 21.3206284,21.7815465 C20.9940147,21.6393399 20.619103,21.4965941 20.2025421,21.3631212 C18.0658673,20.678496 15.7793146,20.5042104 13.5585962,21.1481066 Z M21.1902001,6.64353985 C23.8793771,1.79213607 28.8245777,-0.672531596 32.2965772,1.25202912 C33.7043274,2.03235783 34.6284898,3.40044956 35.0505354,5.07476881 C35.3722699,5.05282622 35.6959051,5.04206409 36.0214365,5.04206409 C41.5683088,5.04206409 46.1214365,8.17233942 46.1214365,12.1420641 C46.1214365,16.1117888 41.5683088,19.2420641 36.0214365,19.2420641 C33.7829929,19.2420641 31.6554616,18.731245 29.9191549,17.8077641 C27.4871513,19.5975359 24.7003635,20.1371313 22.5034228,18.9193472 C19.0314234,16.9947865 18.501023,11.4949436 21.1902001,6.64353985 Z M32.4820995,2.59111268 L32.4609244,2.85006733 C32.2133114,5.46735483 31.0574351,7.11750062 28.410651,9.46777572 L27.2254067,10.5010571 C24.1929388,13.1900912 23.2026557,14.8995653 23.4019099,18.2405403 C25.2962232,19.0315126 27.7085345,18.3664145 29.8046714,16.6296478 L29.8241396,16.5988297 L29.8344701,16.6048679 C30.9285269,15.6917659 31.9351222,14.4863696 32.7351802,13.0430268 C34.9840995,8.98586911 34.7737963,4.54105856 32.4820995,2.59111268 Z M34.4257228,11.7925107 L34.38733,11.8924795 C34.1676469,12.4417413 33.9085974,12.9887916 33.6097999,13.5278365 C32.8246671,14.9442535 31.8472291,16.1572233 30.7702947,17.11691 C32.2860178,17.8408246 34.1060703,18.2420641 36.0214365,18.2420641 C40.6200427,18.2420641 44.3801529,15.9435647 45.0240353,13.0300019 C42.4690232,14.1870328 40.3996722,13.9350939 36.7796812,12.6246126 L35.4552498,12.1393818 C35.045388,11.9924414 34.7327612,11.8868148 34.4257228,11.7925107 Z M31.5093986,1.97505468 C28.6102119,0.668840326 24.4328357,2.85633568 22.0648198,7.12834947 C19.79622,11.2210119 20.0300728,15.7081416 22.3785432,17.6308812 C22.3289513,14.3360532 23.5158287,12.4549578 26.568261,9.74744183 L27.7402009,8.72591229 C30.3865492,6.37819998 31.3834733,4.86071952 31.5010937,2.22599496 Z M36.0214365,6.04206409 C35.7582307,6.04206409 35.4964526,6.04961062 35.2365664,6.06460626 C35.4273321,7.54035763 35.2707835,9.18788797 34.7571444,10.8486921 L34.6282456,10.8088336 C34.9287953,10.8993411 35.2240205,10.9967764 35.591574,11.1264431 L36.7536764,11.5500481 C40.6239269,12.9848341 42.5178795,13.2101049 45.1113449,11.877198 C44.9034983,8.67430617 40.9425903,6.04206409 36.0214365,6.04206409 Z"></path>
            </g>
            <g transform="translate(16.000000, 0.000000)" id="Group-15"></g>
        </g>
    </g>
</svg>