<svg xmlns:xlink="http://www.w3.org/1999/xlink" xmlns="http://www.w3.org/2000/svg" version="1.1" viewBox="0 0 50 50" height="50px" width="50px">
    <title>Icon / LimitedTimeOffer / Gold</title>
    <g fill-rule="evenodd" fill="none" stroke-width="1" stroke="none" id="Icon-/-LimitedTimeOffer-/-Gold">
        <g fill-rule="nonzero" fill="#B9975B" transform="translate(10.000000, 5.000000)" id="Group-25">
            <path id="Combined-Shape" d="M30.4331849,0.332893927 L30.4331849,1.33289393 L27.0320334,1.33370511 C27.1335227,4.89905318 25.9352107,8.34958299 23.6332944,11.1195046 L23.3731118,11.421297 C22.8480608,12.0070397 22.2760766,12.5036349 21.3184285,13.233365 L19.9590463,14.2500965 C18.1146433,15.6440119 17.3328448,16.4341901 16.7477323,17.6394517 C15.8504926,19.4872627 16.2501574,21.5173721 17.7503736,23.141326 C18.3238702,23.7617781 18.8693151,24.2141757 20.0481157,25.0871288 L20.7882515,25.6339658 C21.601978,26.2401567 22.0498448,26.6038917 22.5416513,27.0712055 C24.3130524,28.7539249 25.5850063,30.6533346 26.2796059,32.7683384 C26.8563764,34.5242578 27.1121355,36.3325424 26.9860089,38.0182409 L26.9663955,38.2268939 L30.4331849,38.2276308 L30.4331849,39.2276308 L0.117395465,39.2276308 L0.117395465,38.2276308 L2.78139546,38.2268939 L2.76251806,38.0182409 C2.63639141,36.3325425 2.89214996,34.5242595 3.46891307,32.7683628 C4.16347822,30.6534639 5.43533953,28.7540793 7.20661413,27.071177 L7.45085445,26.844545 C7.85812242,26.4758721 8.28220418,26.1390879 8.96024904,25.6339826 L9.4560104,25.2675013 C10.8066106,24.2737484 11.3864236,23.8031416 11.998059,23.1414282 C13.4983695,21.5173721 13.8980344,19.4872627 13.0007763,17.6394139 C12.3890854,16.3794039 11.5624047,15.573035 9.53130341,14.0561793 L8.67774125,13.4208411 C7.39739447,12.4573115 6.76375562,11.9000222 6.11526122,11.1195391 C3.81331758,8.3495846 2.61500429,4.89905325 2.71649359,1.33370511 L0.117395465,1.33289393 L0.117395465,0.332893927 L30.4331849,0.332893927 Z M24.8834785,7.22741328 L4.865263,7.22789133 C5.37692683,8.38629447 6.053441,9.48055506 6.88437782,10.4804306 C7.47206071,11.1877252 8.06698854,11.7100494 9.29436245,12.6333046 L10.4155373,13.4697267 C12.3717988,14.9494165 13.2280438,15.8177747 13.9003542,17.2026535 C14.9862011,19.4388898 14.5004367,21.9063447 12.7325015,23.8200991 L12.4825106,24.0824954 C12.0229952,24.5495191 11.5402366,24.9543258 10.7595032,25.5441158 L9.37698827,26.5711036 C8.70796194,27.073945 8.31477976,27.3978235 7.8953422,27.7961968 C6.23832182,29.3705452 5.05891216,31.1318634 4.4189808,33.0804065 C3.88485962,34.7064843 3.64717708,36.3735253 3.75745614,37.9124963 L3.78539546,38.2268939 L4.98239546,38.2268939 L4.95513013,38.1930429 C7.17688841,36.3875904 10.2418679,35.038783 14.1475342,34.1381452 L14.6853357,34.0181081 L14.9020495,34.0193588 C18.8719341,34.9247173 22.0530608,36.2385768 24.4438397,37.9677014 L24.764956,38.2060658 L24.7483955,38.2268939 L25.9613955,38.2268939 L25.9910708,37.9124963 C26.1013498,36.3735252 25.8636667,34.7064824 25.3295382,33.0803822 C24.6895796,31.1317563 23.5101004,29.3704391 21.8528761,27.7961804 L21.6249659,27.5847463 C21.3197051,27.3086254 20.999237,27.0475428 20.5473407,26.7039714 L18.9890232,25.5441151 C18.0663356,24.8470877 17.5598158,24.4084126 17.015931,23.8199969 C15.2480903,21.9063447 14.7623258,19.4388898 15.8481544,17.2026913 C16.5204816,15.8177779 17.3767281,14.9494168 19.3329896,13.4697267 L20.4541646,12.6333045 C21.6815388,11.7100489 22.2764696,11.1877211 22.8641778,10.4803961 C23.6952163,9.48039824 24.3717943,8.38598513 24.8834785,7.22741328 Z M14.787,35.019 L14.3771927,35.1114299 C11.1776266,35.8487828 8.58314593,36.888762 6.59220087,38.2261841 L23.0432524,38.2265046 C20.989357,36.9238481 18.3828036,35.8876795 15.2226566,35.1219795 L14.787,35.019 Z M15.4407321,29.4644729 L15.4407321,31.9907887 L14.4407321,31.9907887 L14.4407321,29.4644729 L15.4407321,29.4644729 Z M15.4407321,26.0960518 L15.4407321,28.6223676 L14.4407321,28.6223676 L14.4407321,26.0960518 L15.4407321,26.0960518 Z M15.4407321,23.569736 L15.4407321,25.2539466 L14.4407321,25.2539466 L14.4407321,23.569736 L15.4407321,23.569736 Z M26.0315835,1.33323692 L3.71694574,1.33316082 C3.66553235,3.01458882 3.92431908,4.66862196 4.4699958,6.22765591 L25.2785223,6.22768818 C25.8241959,4.66867144 26.0829872,3.01465211 26.0315835,1.33323692 Z"></path>
        </g>
    </g>
</svg>