<svg width="34" height="31" viewBox="0 0 34 31" fill="none" xmlns="http://www.w3.org/2000/svg">
<g id="Gold (7) 1">
<g id="Final">
<g id="PDP-Coffee-Full">
<g id="Group-11">
<g id="Group-23">
<g id="Icon-/-Shipped-/-Gold">
<g id="Group-14">
<path id="Combined-Shape" d="M24.2368 23.1081H23.4295H13.7953C14.334 23.7971 14.6571 24.6765 14.6571 25.6346C14.6571 27.8453 12.9372 29.6374 10.8157 29.6374C8.69419 29.6374 6.97436 27.8453 6.97436 25.6346C6.97436 24.6765 7.29739 23.7971 7.83614 23.1081H2.125C1.3426 23.1081 0.708336 22.4471 0.708336 21.6319V2.21429C0.708336 1.39901 1.3426 0.738095 2.125 0.738095H22.0128C22.7952 0.738095 23.4295 1.39901 23.4295 2.21429V21.6319H31.9295V14.5348C31.9295 10.7211 29.0428 7.61003 25.422 7.44464L25.1186 7.43773H24.7045V5.96154H25.1186C29.5569 5.96154 33.1744 9.62347 33.3402 14.206L33.3462 14.5348V21.6319C33.3462 22.3889 32.7993 23.0129 32.0947 23.0981L31.9295 23.1081H30.1959C30.7347 23.7971 31.0577 24.6765 31.0577 25.6346C31.0577 27.8453 29.3379 29.6374 27.2164 29.6374C25.0948 29.6374 23.375 27.8453 23.375 25.6346C23.375 24.6765 23.698 23.7971 24.2368 23.1081ZM22.0128 2.21429H2.125V21.6319L22.0122 21.6306L22.0128 2.21429ZM10.8157 23.1081C9.47659 23.1081 8.39103 24.2392 8.39103 25.6346C8.39103 27.03 9.47659 28.1612 10.8157 28.1612C12.1548 28.1612 13.2404 27.03 13.2404 25.6346C13.2404 24.2392 12.1548 23.1081 10.8157 23.1081ZM27.2164 23.1081C25.8772 23.1081 24.7917 24.2392 24.7917 25.6346C24.7917 27.03 25.8772 28.1612 27.2164 28.1612C28.5555 28.1612 29.641 27.03 29.641 25.6346C29.641 24.2392 28.5555 23.1081 27.2164 23.1081Z" fill="#B9975B"/>
<path id="Rectangle" d="M13.9487 25.6346C13.9487 23.8316 12.546 22.37 10.8157 22.37C9.08539 22.37 7.68269 23.8316 7.68269 25.6346C7.68269 27.4376 9.08539 28.8993 10.8157 28.8993C12.546 28.8993 13.9487 27.4376 13.9487 25.6346Z" stroke="#B9975B"/>
</g>
</g>
</g>
</g>
</g>
</g>
</g>
</svg>
