<svg width="27" height="28" viewBox="0 0 27 28" fill="none" xmlns="http://www.w3.org/2000/svg">
<path id="Vector" d="M25.2391 2.24H21.1304V0.56C21.1304 0.411479 21.0686 0.269041 20.9585 0.16402C20.8484 0.0589999 20.6991 0 20.5435 0C20.3878 0 20.2385 0.0589999 20.1284 0.16402C20.0184 0.269041 19.9565 0.411479 19.9565 0.56V2.24H7.04348V0.56C7.04348 0.411479 6.98164 0.269041 6.87156 0.16402C6.76149 0.0589999 6.61219 0 6.45652 0C6.30085 0 6.15156 0.0589999 6.04148 0.16402C5.9314 0.269041 5.86957 0.411479 5.86957 0.56V2.24H1.76087C1.29386 2.24 0.845974 2.417 0.515747 2.73206C0.185519 3.04712 0 3.47444 0 3.92V26.32C0 26.7656 0.185519 27.1929 0.515747 27.5079C0.845974 27.823 1.29386 28 1.76087 28H25.2391C25.7061 28 26.154 27.823 26.4843 27.5079C26.8145 27.1929 27 26.7656 27 26.32V3.92C27 3.47444 26.8145 3.04712 26.4843 2.73206C26.154 2.417 25.7061 2.24 25.2391 2.24ZM1.76087 3.36H5.86957V5.04C5.86957 5.18852 5.9314 5.33096 6.04148 5.43598C6.15156 5.541 6.30085 5.6 6.45652 5.6C6.61219 5.6 6.76149 5.541 6.87156 5.43598C6.98164 5.33096 7.04348 5.18852 7.04348 5.04V3.36H19.9565V5.04C19.9565 5.18852 20.0184 5.33096 20.1284 5.43598C20.2385 5.541 20.3878 5.6 20.5435 5.6C20.6991 5.6 20.8484 5.541 20.9585 5.43598C21.0686 5.33096 21.1304 5.18852 21.1304 5.04V3.36H25.2391C25.3948 3.36 25.5441 3.419 25.6542 3.52402C25.7642 3.62904 25.8261 3.77148 25.8261 3.92V8.96H1.17391V3.92C1.17391 3.77148 1.23575 3.62904 1.34583 3.52402C1.4559 3.419 1.6052 3.36 1.76087 3.36ZM25.2391 26.88H1.76087C1.6052 26.88 1.4559 26.821 1.34583 26.716C1.23575 26.611 1.17391 26.4685 1.17391 26.32V10.08H25.8261V26.32C25.8261 26.4685 25.7642 26.611 25.6542 26.716C25.5441 26.821 25.3948 26.88 25.2391 26.88ZM17.6087 18.48C17.6087 18.6285 17.5469 18.771 17.4368 18.876C17.3267 18.981 17.1774 19.04 17.0217 19.04H14.087V21.84C14.087 21.9885 14.0251 22.131 13.915 22.236C13.805 22.341 13.6557 22.4 13.5 22.4C13.3443 22.4 13.195 22.341 13.085 22.236C12.9749 22.131 12.913 21.9885 12.913 21.84V19.04H9.97826C9.82259 19.04 9.6733 18.981 9.56322 18.876C9.45314 18.771 9.3913 18.6285 9.3913 18.48C9.3913 18.3315 9.45314 18.189 9.56322 18.084C9.6733 17.979 9.82259 17.92 9.97826 17.92H12.913V15.12C12.913 14.9715 12.9749 14.829 13.085 14.724C13.195 14.619 13.3443 14.56 13.5 14.56C13.6557 14.56 13.805 14.619 13.915 14.724C14.0251 14.829 14.087 14.9715 14.087 15.12V17.92H17.0217C17.1774 17.92 17.3267 17.979 17.4368 18.084C17.5469 18.189 17.6087 18.3315 17.6087 18.48Z" fill="#937031"/>
</svg>
