<svg xmlns:xlink="http://www.w3.org/1999/xlink" xmlns="http://www.w3.org/2000/svg" version="1.1" viewBox="0 0 50 50" height="50px" width="50px">
    <title>Icon / Coffee Large / Gold</title>
    <g fill-rule="evenodd" fill="none" stroke-width="1" stroke="none" id="Icon-/-Coffee-Large-/-Gold">
        <g transform="translate(7.000000, 1.000000)" id="Group-23">
            <path fill-rule="nonzero" fill="#B9975B" id="Combined-Shape" d="M29.0681818,16.5 L29.068,21.6810822 L33.5681818,21.6818182 C34.3478779,21.6818182 34.9886305,22.2767063 35.0613152,23.0373582 L35.0681818,23.1818182 L35.0681818,30.6818182 C35.0681818,31.5102453 34.3966089,32.1818182 33.5681818,32.1818182 L33.5681818,32.1818182 L29.068,32.1810822 L29.0681818,36.7727273 C29.0681818,39.5513792 27.557118,41.9771032 25.311898,43.2729917 L35.5,43.2727273 L35.5,43.7727273 C35.5,46.4337356 33.3428265,48.5909091 30.6818182,48.5909091 L30.6818182,48.5909091 L5.31818182,48.5909091 C2.65717348,48.5909091 0.5,46.4337356 0.5,43.7727273 L0.5,43.7727273 L0.5,43.2727273 L9.82446564,43.2729917 C7.57924562,41.9771032 6.06818182,39.5513792 6.06818182,36.7727273 L6.06818182,36.7727273 L6.06818182,16.5 L29.0681818,16.5 Z M13.5070747,44.2724835 L1.533,44.272 L1.54399404,44.3541987 C1.81437608,46.1237514 3.29951992,47.4935744 5.12169869,47.5859409 L5.12169869,47.5859409 L5.31818182,47.5909091 L30.6818182,47.5909091 C32.5928489,47.5909091 34.1759674,46.1869497 34.456006,44.3541987 L34.456006,44.3541987 L34.466,44.272 L21.629,44.2710822 L21.5681818,44.2727273 L13.5681818,44.2727273 C13.5477937,44.2727273 13.5274245,44.2726459 13.5070747,44.2724835 Z M28.0676364,17.5 L7.06763636,17.5 L7.06818182,36.7727273 C7.06818182,40.2845379 9.85317803,43.1458778 13.3350477,43.2686243 L13.3350477,43.2686243 L13.5681818,43.2727273 L21.5681818,43.2727273 C25.1580327,43.2727273 28.0681818,40.3625781 28.0681818,36.7727273 L28.0681818,36.7727273 L28.068,32.1810822 L28.0227273,32.1818182 L28.0227273,21.6818182 L28.067,21.6810822 L28.0676364,17.5 Z M10.6056371,33.1016035 L10.6080678,34.1140294 C10.6531851,38.5818211 11.362622,39.2008608 15.7191486,39.2393792 L16.2183673,39.2414361 L17.7535813,39.2414361 L17.7535813,40.2414361 L16.2183673,40.2414361 C10.8207545,40.2414361 9.64430412,39.340075 9.60658845,33.8830247 L9.60563708,33.1016035 L10.6056371,33.1016035 Z M29.068,22.6800822 L29.068,31.1800822 L33.5681818,31.1818182 C33.8136417,31.1818182 34.0177902,31.004943 34.0601261,30.7716938 L34.0681818,30.6818182 L34.0681818,23.1818182 C34.0681818,22.9056758 33.8443242,22.6818182 33.5681818,22.6818182 L33.5681818,22.6818182 L29.068,22.6800822 Z M15.6255197,0.302082155 L16.2098123,1.11362518 L15.8040408,1.40577151 C14.095647,2.63577649 13.1243488,4.26921221 13.6463771,5.51548115 C13.8073083,5.89956958 14.0308216,6.18663472 14.5222283,6.65518361 L15.2182116,7.29995637 C15.6695089,7.72774026 15.9093655,8.00941951 16.1337188,8.39636632 C16.9835921,9.86242156 16.4526577,11.0746814 14.7997282,12.8249398 L13.9494757,13.7016482 L13.6982497,13.9706279 C13.6229194,14.0536279 13.5554112,14.1306968 13.4939566,14.2040209 L13.0946221,14.7026051 L12.312355,14.0796619 L12.6238266,13.6885284 C12.7531356,13.5261473 12.9007239,13.3578035 13.083024,13.1625616 L13.4229281,12.8078705 C13.6158136,12.6096441 13.8634003,12.3566506 13.893318,12.3257761 C15.4000711,10.7708335 15.8342254,9.87365295 15.2685947,8.89792409 C15.10047,8.60795595 14.9028226,8.37786506 14.5063578,8.00326598 L14.1777438,7.69985394 C13.3429765,6.940056 12.9925166,6.54263048 12.7240444,5.90187768 C11.9935168,4.15784622 13.0987162,2.20014301 15.0183066,0.743137794 L15.2197482,0.594228488 L15.6255197,0.302082155 Z M22.6255197,0.302082155 L23.2098123,1.11362518 L22.8040408,1.40577151 C21.095647,2.63577649 20.1243488,4.26921221 20.6463771,5.51548115 C20.8073083,5.89956958 21.0308216,6.18663472 21.5222283,6.65518361 L22.2182116,7.29995637 C22.6695089,7.72774026 22.9093655,8.00941951 23.1337188,8.39636632 C23.9835921,9.86242156 23.4526577,11.0746814 21.7997282,12.8249398 L20.9494757,13.7016482 L20.6982497,13.9706279 C20.6229194,14.0536279 20.5554112,14.1306968 20.4939566,14.2040209 L20.0946221,14.7026051 L19.312355,14.0796619 L19.6238266,13.6885284 C19.7531356,13.5261473 19.9007239,13.3578035 20.083024,13.1625616 L20.4229281,12.8078705 C20.6158136,12.6096441 20.8634003,12.3566506 20.893318,12.3257761 C22.4000711,10.7708335 22.8342254,9.87365295 22.2685947,8.89792409 C22.10047,8.60795595 21.9028226,8.37786506 21.5063578,8.00326598 L21.1777438,7.69985394 C20.3429765,6.940056 19.9925166,6.54263048 19.7240444,5.90187768 C18.9935168,4.15784622 20.0987162,2.20014301 22.0183066,0.743137794 L22.2197482,0.594228488 L22.6255197,0.302082155 Z"></path>
            <g transform="translate(1.000000, 17.000000)" id="Group-22">
                <g transform="translate(4.613636, 0.000000)" id="Group-20"></g>
            </g>
        </g>
    </g>
</svg>